<?xml version="1.0" encoding="UTF-8" standalone="no"?>
<!-- Created with Inkscape (http://www.inkscape.org/) -->

<svg
   version="1.1"
   id="svg824"
   width="512"
   height="512"
   viewBox="0 0 512 512"
   sodipodi:docname="duckling.svg"
   inkscape:version="1.1.1 (3bf5ae0d25, 2021-09-20)"
   xmlns:inkscape="http://www.inkscape.org/namespaces/inkscape"
   xmlns:sodipodi="http://sodipodi.sourceforge.net/DTD/sodipodi-0.dtd"
   xmlns="http://www.w3.org/2000/svg"
   xmlns:svg="http://www.w3.org/2000/svg">
  <defs
     id="defs828" />
  <sodipodi:namedview
     id="namedview826"
     pagecolor="#ffffff"
     bordercolor="#666666"
     borderopacity="1.0"
     inkscape:pageshadow="2"
     inkscape:pageopacity="0.0"
     inkscape:pagecheckerboard="0"
     showgrid="false"
     inkscape:zoom="1.5097656"
     inkscape:cx="332.83312"
     inkscape:cy="256"
     inkscape:window-width="1920"
     inkscape:window-height="991"
     inkscape:window-x="-9"
     inkscape:window-y="-9"
     inkscape:window-maximized="1"
     inkscape:current-layer="g830" />
  <g
     inkscape:groupmode="layer"
     inkscape:label="Image"
     id="g830">
    <path
       style="fill:#b75c34;fill-opacity:1"
       d="m 233.5,455.41276 c -39.18496,-2.95198 -70.11045,-10.55807 -97,-23.85703 -16.75372,-8.286 -24.10659,-13.20389 -34.19107,-22.86832 C 92.072144,398.87701 87.368144,392.80547 81.632534,382 66.627508,353.73163 66.764599,318.40755 81.999861,287.35103 88.384295,274.33659 96.538525,263.38213 110.54742,249 c 6.16085,-6.325 11.93303,-12.94015 12.82707,-14.70034 2.14856,-4.23012 2.02752,-11.81781 -0.26917,-16.87457 -2.80943,-6.18567 -11.29331,-14.14697 -24.825867,-23.29667 -18.84653,-12.74262 -32.086996,-26.17798 -39.849686,-40.43626 -3.012371,-5.53303 -2.697531,-9.36588 0.835463,-10.17093 1.229123,-0.28007 8.08477,-1.17912 15.23477,-1.99789 16.592042,-1.89999 24.974237,-3.41509 26.94167,-4.86975 0.85813,-0.63447 2.47091,-4.45045 3.58395,-8.47996 7.67964,-27.80225 29.87043,-53.034 56.3298,-64.049064 34.47747,-14.353006 71.192,-8.958557 101.12253,14.857886 15.20144,12.096156 26.97198,30.863028 32.62529,52.017548 3.31577,12.40748 3.34783,34.89579 0.067,46.97795 -5.33501,19.64692 -13.40382,33.48464 -27.71023,47.52205 -5.04486,4.95 -9.68716,9.98292 -10.31623,11.18426 -0.62908,1.20134 -1.14377,4.2593 -1.14377,6.79545 0,3.60114 0.55477,5.16597 2.53268,7.14388 l 2.53267,2.53267 40.71733,-0.39281 c 40.17029,-0.38754 40.84772,-0.42797 50.42313,-3.00932 22.88537,-6.16948 41.35451,-18.07069 53.4776,-34.46009 4.47921,-6.05552 5.91855,-7.31634 9.01554,-7.89734 4.94556,-0.92779 7.56078,0.68584 13.9785,8.62497 27.42219,33.92301 34.44596,82.98546 18.70464,130.65577 C 439.89415,369.35358 431.15994,383.92748 416.02491,399 404.02993,410.94544 391.26183,420.0201 374,428.86833 c -26.04947,13.35268 -50.43011,20.41641 -85,24.62678 -12.30815,1.49905 -45.72835,2.65379 -55.5,1.91765 z M 157.3162,153.55119 c 5.0948,-1.81704 7.58318,-4.17713 9.92562,-9.41388 C 171.9995,133.50106 163.76966,121 152.00982,121 c -14.41334,0 -22.31538,17.18771 -12.69938,27.62238 2.95848,3.21036 9.17124,6.28983 12.68956,6.28983 0.825,0 3.21729,-0.61246 5.3162,-1.36102 z"
       id="path932" />
  </g>
</svg>
